<svg id="Layer_1" height="512" viewBox="0 0 32 32" width="512" xmlns="http://www.w3.org/2000/svg" data-name="Layer 1"><circle cx="16" cy="16" fill="#3d9635" r="16"/><g fill="#fff"><path d="m4.705 9.315c-.053.827-.121 2.29.5 2.438.755.078.339-1.441.611-1.717.052-.134.148-.134.155.035v1.294a.6.6 0 0 0 .431.622c.2-.015.33-.008.407.212q.05 1.113.093 2.226s.461.155.483-1.251a14.733 14.733 0 0 1 -.043-1.674c0-.156.18-.17.308-.085.2.156.286.346.592.269.468-.149.746-.4.754-.806a3.893 3.893 0 0 0 -.21-1.152c.02-.071-.093-.247-.069-.318.083.149.209.134.237 0a1.161 1.161 0 0 0 -.4-.7c-.166-.163-.411-.128-.5.219a2.043 2.043 0 0 0 .384 1.236 1.363 1.363 0 0 1 .095.622.28.28 0 0 1 -.382-.085s-.376-.318-.376-.381a1.687 1.687 0 0 0 -.031-1 1.36 1.36 0 0 0 -.244-.534c-.092-.12-.218-.12-.278 0a2.083 2.083 0 0 0 .03 1.315c.083.282.217.459.156.459-.052.163-.158.12-.234-.064a5.059 5.059 0 0 1 -.129-1.208c-.035-.318-.073-1-.258-1.173-.113-.17-.283-.085-.343.078a6.786 6.786 0 0 0 .019.918 11.012 11.012 0 0 1 .231 1.484c.016.7-.358.3-.342-.049a3.566 3.566 0 0 0 -.013-1.336c-.061-.183-.133-.226-.284-.19-.12-.015-.423.36-.508.982a5.593 5.593 0 0 0 -.1.608c-.044.318-.231.544-.362-.05-.116-.431-.184-1.491-.374-1.244"/><path d="m6.76 12.707c-.667.375-1.315.714-1.971 1.067a2.09 2.09 0 0 1 1.56-1.42c.4.014.3.177.411.353"/><path d="m9.273 8.029a.562.562 0 0 0 -.126.042.419.419 0 0 0 -.264.516c.19 1.3.311 2.29.5 3.583.033.156-.083.354-.228.34-.249-.191-.311-.58-.735-.559a.884.884 0 0 0 -.7.742 2.121 2.121 0 0 0 0 .848.573.573 0 0 0 .7.2c.186-.085.341-.3.407-.247.041.085-.006.763-.878 1.279-.539.268-.965.339-1.2-.156-.14-.31.011-1.484-.338-1.215-1.038 3.01 2.429 3.434 2.818.127.025-.092.1-.184.157-.162.026.014.044.049.05.12-.08 2.989-2.681 3.187-3.122 2.254a3.141 3.141 0 0 1 -.156-1.011.579.579 0 0 0 -.106-.332c-.106-.084-.247.149-.279.552a4.03 4.03 0 0 0 -.031.72c.138 2.375 3.488 1.357 4.035-.6a7.513 7.513 0 0 0 .09-1.87h.011l.008-.007c.339.4.8.049.905-.085a.144.144 0 0 1 .232-.028.51.51 0 0 0 .808-.254 9.991 9.991 0 0 0 .113-1.124.9.9 0 0 0 -.361.169.116.116 0 0 0 -.027.057c-.013.1-.027.212-.043.318a.286.286 0 0 1 -.007.028.077.077 0 0 1 -.033.029.109.109 0 0 1 -.17-.085c-.079-.4-.409-.467-.61.169-.138.128-.38.149-.407-.028.035-.431-.121-.488-.427-.29-.1-.848-.2-1.653-.3-2.5.13 0 .244.106.363-.057a5.1 5.1 0 0 0 -.542-1.433.336.336 0 0 0 -.024-.029.012.012 0 0 1 -.01-.007h-.012c-.006-.007-.016-.007-.017-.014-.016 0-.03-.007-.044 0m-.932 4.643a.174.174 0 0 1 .184.127.249.249 0 0 1 -.038.226c-.027.05-.115.029-.181.029a.164.164 0 0 1 -.163-.092c-.024-.078.042-.156.074-.219s.006-.014.011-.021a.236.236 0 0 1 .113-.05"/><path d="m11.608 7.958a.624.624 0 0 0 -.234.071.557.557 0 0 0 -.074.671c.132.064.264.22.174.3-.37.446-1.341 1.2-1.39 1.336v.007.007h.008a2.278 2.278 0 0 0 .724.007v-.007a10.8 10.8 0 0 0 1.2-1.357c-.049-.049-.1-.085-.149-.134a.1.1 0 0 1 0-.156.485.485 0 0 0 .041-.678.54.54 0 0 0 -.3-.064m-.046.389c.061-.007.132.064.168.148s.019.184-.041.205-.143-.049-.183-.141-.018-.191.045-.205c0 0 0-.007.011-.007"/><path d="m4.858 14.842a2.436 2.436 0 0 0 -.2 1.95.388.388 0 0 0 .419.155c.231-.113.335-.643.278-.833-.077-.142-.138-.163-.217-.043-.161.368-.23.113-.245-.1a5.489 5.489 0 0 1 .044-1.046c.041-.289 0-.205-.081-.084"/><path d="m20.674 13.782c-.356-.87-.852-1.725-1.009-2.05s-1.348-2.268-1.524-2.494c-.388-.516.628.219-.129-.813-.286-.276-.3-.29-.547-.516-.116-.1-.415-.268-.463.014a1.787 1.787 0 0 0 .025.615 2.182 2.182 0 0 0 .3.523 39.593 39.593 0 0 1 3.31 5.978c.164-.084.129-1.109.032-1.257"/><path d="m19.106 16.679c-.073.085.171.473.49.466.529-.063 1-.4 1.428-1.286a2.463 2.463 0 0 0 .327-.989 24.34 24.34 0 0 0 -.357-5 .884.884 0 0 1 .013-.346c.034-.049.151 0 .212-.113.093-.106-.239-.968-.428-1.3-.067-.149-.091-.247-.2.014a2.085 2.085 0 0 0 -.186.947c.253 1.965.33 3.7.5 5.66a.865.865 0 0 1 -.124.58 4.96 4.96 0 0 1 -1.671 1.371"/><path d="m25.182 19.551c-.383.248-.383.537-.072.544a1.825 1.825 0 0 0 1.59-.855 3.108 3.108 0 0 0 .257-1.1 29.163 29.163 0 0 0 -.288-5.406 2.682 2.682 0 0 1 -.053-.509c.036-.092.207.014.265-.1.094-.1-.443-.883-.635-1.215-.064-.149-.088-.248-.2.021a1.675 1.675 0 0 0 -.11.94 58.311 58.311 0 0 1 .532 6.106 1.968 1.968 0 0 1 -.106.5 3.667 3.667 0 0 1 -.519.686c-.176.141-.544.282-.663.388"/><path d="m26.553 14.75c-.006-.5.013-.933-.006-1.308s-.168-1.774-.215-2.07-.106-.756-.178-1.117a3.4 3.4 0 0 1 -.066-.636c.028-.1.151.007.206-.113a4.256 4.256 0 0 0 -.5-1.569c-.069-.148-.2-.1-.359.142-.152.155-.1.508-.039.848a35.029 35.029 0 0 1 .604 6.706c-.022.177.559-.544.553-.883"/><path d="m23.744 11.979c-.241-.007-.743-.523-.889-.826a.647.647 0 0 1 .028-.446c.089-.063.226-.141.327-.063 0 0 .106.162.086.184.13.07.187.028.2-.036.008-.1-.041-.162-.041-.275.055-.318.374-.361.5-.163a1.258 1.258 0 0 1 .134.551c0 .092-.131-.014-.2.007s-.091.114-.1.2c-.016.233-.038.594-.041.869"/><path d="m19.322 15.308c.068-.686-.022-2.071-.028-2.473-.022-.947-.163-2.778-.226-3.082-.076-.579.209.064.168-.275a3.846 3.846 0 0 0 -.709-1.491c-.106-.17-.1-.205-.27.042a1.985 1.985 0 0 0 .022 1.159 23.774 23.774 0 0 1 .446 3.364 33.722 33.722 0 0 1 .027 3.576c.181 0 .47-.332.57-.82"/><path d="m27.37 14.213c-.419-.8-1.059-1.732-1.228-2.05s-1.613-2.692-1.793-2.9c-.528-.615.242-.1-.1-.587a4.444 4.444 0 0 0 -.624-.678c-.123-.085-.2-.262-.24.028a6.5 6.5 0 0 0 -.019.777 1.041 1.041 0 0 0 .21.481 45.223 45.223 0 0 1 3.787 6.183c.16-.084.105-1.109.006-1.25"/><path d="m22.257 21.782a.414.414 0 0 0 -.119.735c-3.945 0-10-.071-11.293-.071-.729 0-3.024-.1-3.067-.1a2.227 2.227 0 0 0 2.137.989c1.754 0 9.869-.021 12.176-.021a.984.984 0 0 0 .146.947l.009.007a.013.013 0 0 0 .014.007h.007c.154.043.221-.085.275-.169a14.8 14.8 0 0 0 1.77-.007c.087.141.175.275.338.254.288-.071.514-.106.524-.763 0 0-.03-1.117-.684-1.046-.155.021-.588.071-.588.071-.5-.064-.873-.071-1.437-.1.053-.071.143-.375.031-.481a.183.183 0 0 0 -.135-.042h-.011s-.009-.007-.012-.014v-.007a1.332 1.332 0 0 1 -.063-.191h-.013m.268 1.6c.572.028 1.112.007 1.69.035a.258.258 0 0 1 -.015.325c0 .007-.007.007-.008.007h-.016c-.187-.007-.294-.007-.481-.014 0-.014-.006-.021-.006-.035-.046-.149-.364-.134-.442-.014v.007.014.014a.039.039 0 0 0 0 .021 3.627 3.627 0 0 1 -.735-.028c-.071-.1-.063-.283.024-.332"/><path d="m12.277 8.637c-.383 1.229.222 2.586.64 2.459.3.134.493-.516.619-1.223.086-.2.149-.219.193-.12-.013.947.059 1.159.275 1.442a.631.631 0 0 0 .91.014c.031-.028.375-.417.375-.417a.205.205 0 0 1 .313-.014c.111.113.1.318.342.452a.677.677 0 0 0 .748-.176c.138-.262.168-.354.231-.453.1-.148.266-.084.266-.035-.015.085-.109.163-.048.311.12.1.147.035.217.014.244-.134.428-.728.428-.728.008-.226-.1-.205-.176-.155-.091.063-.1.085-.192.148-.118.014-.35.106-.462-.092-.119-.24-.119-.579-.211-.819 0-.014-.153-.375-.009-.4.071.014.225.063.251-.085.078-.141-.163-.551-.326-.749a.331.331 0 0 0 -.531-.021.709.709 0 0 0 -.142.438.754.754 0 0 0 .127.594 1.971 1.971 0 0 1 .3 1.208.441.441 0 0 1 -.39.226c-.1-.028-.27-.078-.36-.813a5.812 5.812 0 0 0 -.194-1.717c-.077-.226-.131-.445-.318-.056a.961.961 0 0 0 -.11.841 2.779 2.779 0 0 1 .12 1.307 2.356 2.356 0 0 1 -.224.36.343.343 0 0 1 -.472.071.568.568 0 0 1 -.287-.449 7.178 7.178 0 0 0 -.047-1.449c-.114-.269-.307-.17-.387-.092a3.444 3.444 0 0 0 -.709 1.633c-.11.395-.227.282-.308.12-.2-.205-.212-1.845-.452-1.576"/><path d="m13.573 11.188c0 .007-.005.007-.011.007v.007c-.025.014-.058.064-.124.12a.682.682 0 0 0 -.124.53c.005.036.21.679.388 1.138a3.968 3.968 0 0 1 .148 1.534 3.591 3.591 0 0 1 -1.375 1.611.636.636 0 0 1 -.574 0v-.007a.41.41 0 0 1 -.155-.368 3.509 3.509 0 0 0 1.383-1.6 1.873 1.873 0 0 0 .037-1.16 1.22 1.22 0 0 0 -.235-.53s0 0 0-.007c.077-.042.276.127.309.021a1.736 1.736 0 0 0 -.4-.82.312.312 0 0 0 -.488-.035c-.165.106-.2.481-.123.813.09.24.333.283.506.777v.007a1.054 1.054 0 0 1 -.03.516 5.484 5.484 0 0 1 -1.035 1.088l-.007.007v.008h-.011c0-.008 0-.008 0-.008a1.142 1.142 0 0 0 0-.162c0-.141.051-.481.047-.544v-.007c-.295.219-.4.883-.451 1.081a13.391 13.391 0 0 0 -2.1 1.618c-.258.446 1.771-.523 2-.636 0 0 .006 0 .009.007a1.843 1.843 0 0 0 .181.417 1.007 1.007 0 0 0 1.094.4 3.642 3.642 0 0 0 1.583-1.484c.06-.1.157-.177.244-.1a2.43 2.43 0 0 0 2.241 1.323c.253-.347.134-.523.03-.587-.033-.028-.547-.254-.625-.48-.049-.205.07-.389.317-.531a9.776 9.776 0 0 0 2.069-.445 2.2 2.2 0 0 1 .227-.8.36.36 0 0 1 .117-.142s0 0 0-.007v-.007a.04.04 0 0 0 0-.014l-.117-.078-2.248-.014a.272.272 0 0 1 -.063-.035v-.007-.007-.007-.007-.007c0-.007 0-.007 0-.007a.137.137 0 0 1 .071-.05c.54-.078 1.492-.254 1.554-1.293a.864.864 0 0 0 -.791-.982.889.889 0 0 0 -.689 1.024c-.019.135.044.41-.082.438-.828.092-1.73.672-1.763 1.089h-.011l-.006.007h-.011l-.01-.007a.242.242 0 0 1 -.11-.255 5.438 5.438 0 0 0 -.569-2.162c-.114-.134-.166-.184-.2-.191h-.014m3.287.926a.25.25 0 0 1 .176.049.252.252 0 0 1 .138.212v.014.007.006s-.008.007-.014.014c-.044.049-.14.042-.236-.022a.271.271 0 0 1 -.138-.2v-.008c0-.014.006-.021.01-.021l.006-.014c0-.007 0-.007.011-.014a.071.071 0 0 1 .053-.021m-2.091 2.134h.022a5.789 5.789 0 0 0 .941.12c.261.021.39.247.146.346s-.473.163-.473.559a.592.592 0 0 1 0 .339c0 .007-.006.014-.01.014v.007.007h-.007l-.011.007a.01.01 0 0 1 -.009.007c-.06.007-.143-.063-.207-.092a1.462 1.462 0 0 1 -.624-1.038.254.254 0 0 1 .234-.276"/><path d="m7.54 8.651c.261.134.746.078.726-.389 0-.042-.008-.183-.011-.219-.051-.141-.2-.113-.23.036-.011.042.016.12-.02.148s-.105.007-.1-.12a.208.208 0 0 0 -.042-.113.067.067 0 0 0 -.063-.021c-.035.007-.035.014-.051.049a.331.331 0 0 0 -.02.106c-.006.049-.024.064-.054.071s-.023.007-.053-.014c-.014-.022-.038-.029-.038-.064a.642.642 0 0 0 -.012-.113.116.116 0 0 0 -.065-.042c-.143 0-.152.183-.143.254-.012.014-.017.339.175.431"/><path d="m15.137 12.269c.259.135.875.057.727-.4a2.167 2.167 0 0 0 -.016-.219c-.051-.141-.194-.106-.229.036-.008.049.02.127-.017.155s-.106 0-.1-.127a.187.187 0 0 0 -.042-.106.07.07 0 0 0 -.059-.021c-.034.007-.034.014-.054.049a.412.412 0 0 0 -.019.106c0 .05-.021.064-.052.071s-.022.007-.052-.014-.038-.028-.038-.064a.313.313 0 0 0 -.017-.113.1.1 0 0 0 -.063-.042c-.14 0-.148.183-.143.254-.008.007-.014.332.178.431"/><path d="m19.567 10.771c.258.134.745.071.725-.4 0-.035-.008-.176-.011-.219-.055-.134-.2-.106-.23.043-.012.042.015.12-.023.141-.019.028-.1.014-.1-.12a.262.262 0 0 0 -.042-.113.116.116 0 0 0 -.057-.007c-.034 0-.034.007-.055.042a.437.437 0 0 0 -.02.113c0 .043-.019.057-.052.064s-.027.007-.05-.014a.079.079 0 0 1 -.038-.064.551.551 0 0 0 -.017-.12.159.159 0 0 0 -.063-.028c-.141 0-.153.183-.143.247-.01.014-.016.339.177.431"/><path d="m21.86 14.524a1.966 1.966 0 0 0 -.151 1.724 1.329 1.329 0 0 0 .558.714.362.362 0 0 0 .584-.071c.264-.311.271-1.095.393-1.251.09-.29.307-.24.413-.113a1.155 1.155 0 0 0 .379.368.586.586 0 0 0 .834.063 1.031 1.031 0 0 0 .445-.608 24.863 24.863 0 0 0 .033-3.575c-.013-.085-.256-1.47-.256-1.485s-.035-.706-.06-.869c-.006-.07-.02-.092.043-.084.066.07.072.077.114.091.066.015.126-.113.087-.233-.2-.424-.413-.855-.619-1.272-.047-.063-.113-.12-.194.007a.534.534 0 0 0 -.15.382c.019.3.066.615.083.919.083.515.165 1.038.248 1.561.077 1.11.1 2.127.176 3.237a2.2 2.2 0 0 1 -.267 1.152s-.181.127-.306-.007a4.147 4.147 0 0 1 -.454-.679c-.186-.19-.31-.141-.442 0a7.14 7.14 0 0 0 -.773 1.64c-.066.113-.245.212-.443-.007a2.579 2.579 0 0 1 -.275-1.6"/><path d="m19.684 8.043a1 1 0 0 1 .341.891c-.047.318-.168.671-.258.622s.064-.318-.025-.608c-.055-.191-.369-.53-.336-.636a.213.213 0 0 1 .278-.269"/><path d="m22.608 14.842a8.712 8.712 0 0 0 -.049-1.4c-.014-.367-.372-3.4-.448-3.682-.088-.529.351-.07.3-.381-.15-.389-.527-.961-.644-1.3-.075-.149-.044-.276-.2-.036a3.336 3.336 0 0 0 -.143 1.329 32.413 32.413 0 0 1 .712 6.388c.179 0 .386-.459.476-.918"/><path d="m25.482 11.679c.217.127.339.784.316.975-.041.346-.153.721-.234.671s.017-.515-.025-.657c-.051-.205-.336-.579-.307-.692-.058-.234.126-.332.25-.3"/><path d="m10.846 13.64c.2.085.32.573.3.714-.041.254-.148.523-.224.5s.018-.382-.025-.488c-.015-.261-.3-.4-.29-.509-.054-.205.114-.24.242-.212"/><path d="m5.434 7.881c.3.1.316.593.3.742-.041.261-.148.544-.226.509s0-.389-.042-.5c-.043-.163-.3-.438-.266-.523-.058-.177.113-.262.237-.226"/><path d="m11.333 10.213a.644.644 0 0 0 -.175.8.325.325 0 0 0 .371.128c.225.035.358-.474.358-.474s.007-.141-.257.127c-.114.029-.128-.021-.157-.092a.706.706 0 0 1 .034-.395c.041-.128-.045-.184-.174-.092"/><path d="m13.05 7.69a.953.953 0 0 0 -.349.664c-.009.17-.038.17.063.283.075.12.149.106.295.014a.344.344 0 0 0 .142-.226c.036-.2-.184.092-.214-.127-.047-.205.093-.283.228-.488 0-.134 0-.226-.165-.12"/><path d="m14.437 7.966a4.589 4.589 0 0 0 -.1.77c-.041.191.181.275.278.028a2.517 2.517 0 0 0 .157-.841c-.044-.29-.22-.275-.335.043"/><path d="m23.167 12.962c.032-.029 1.23-.99 1.23-.99.123-.049.1.5.041.488a4.745 4.745 0 0 1 -1.271 1c-.058.043-.118-.374 0-.494"/><path d="m24.262 12.955c.214.12.3.812.274 1 .008.368-.2.664-.286.622s.009-.459-.032-.608a3.248 3.248 0 0 1 -.2-.7c-.06-.234.114-.361.243-.318"/><path d="m17.123 15.951a1.81 1.81 0 0 1 .341-.332.19.19 0 0 1 .232.049c.021.128-.074.255-.044.431.024.071.044.156.16.121a.745.745 0 0 1 .558-.184c.15 0 .151.282.062.282a3.851 3.851 0 0 0 -.762.3.159.159 0 0 1 -.221-.035.267.267 0 0 1 -.021-.247c.01-.142-.041-.219-.148-.212-.08.056-.149.084-.189-.014-.014-.078-.02-.12.032-.163"/><path d="m25.526 16.326a.187.187 0 0 1 0 .261c-.086.092-.143.134-.229.226-.038.078-.063.191.057.226.223.071.743-.3.743-.318a.187.187 0 0 0 .049-.205c-.049-.063-.158-.028-.231-.028-.038 0-.153-.028-.1-.134a1.027 1.027 0 0 0 .094-.2c.033-.092.007-.148-.124-.2a.98.98 0 0 0 -.32 0c-.077.021-.1.064-.118.163.005.155.091.148.181.212"/></g></svg>