<?xml version="1.0" standalone="no"?>
<!DOCTYPE svg PUBLIC "-//W3C//DTD SVG 20010904//EN"
 "http://www.w3.org/TR/2001/REC-SVG-20010904/DTD/svg10.dtd">
<svg version="1.0" xmlns="http://www.w3.org/2000/svg"
 width="450.000000pt" height="90.000000pt" viewBox="0 0 450.000000 90.000000"
 preserveAspectRatio="xMidYMid meet">
<metadata>
Created by potrace 1.10, written by Peter Selinger 2001-2011
</metadata>
<g transform="translate(0.000000,90.000000) scale(0.100000,-0.100000)"
fill="#000000" stroke="none">
<path d="M403 813 c-7 -2 -13 -18 -13 -34 0 -26 3 -29 31 -29 28 0 30 2 27 32
-3 32 -18 43 -45 31z m35 -31 c2 -14 -2 -22 -12 -22 -19 0 -29 17 -22 36 8 22
30 12 34 -14z"/>
<path d="M1120 805 c-20 -25 -8 -50 25 -50 21 0 31 5 33 18 4 21 -14 47 -33
47 -7 0 -18 -7 -25 -15z m48 -23 c3 -16 -2 -22 -17 -22 -26 0 -36 17 -20 36
16 19 33 13 37 -14z"/>
<path d="M704 773 c-65 -22 -120 -75 -143 -139 -35 -93 -20 -179 43 -244 l39
-40 -153 0 c-169 0 -197 14 -37 19 l27 1 0 150 0 150 -25 0 c-16 0 -25 6 -25
15 0 10 -11 15 -35 15 -19 0 -35 -4 -35 -9 0 -5 -11 -12 -25 -15 -20 -5 -25
-13 -25 -36 0 -21 -5 -30 -16 -30 -8 0 -12 5 -9 10 4 6 -10 10 -34 10 -23 0
-41 -4 -41 -10 0 -5 -9 -10 -20 -10 -16 0 -20 -7 -21 -37 -2 -87 -3 -88 -31
-91 -41 -5 -68 -46 -67 -101 l2 -46 6 40 6 40 17 -23 c13 -19 20 -22 36 -13
13 7 22 7 30 -1 19 -19 14 -24 -20 -26 -42 -3 -58 -25 -58 -80 0 -32 -3 -41
-12 -36 -9 5 -9 2 1 -9 9 -11 10 -17 2 -17 -7 0 -10 -25 -9 -72 1 -69 1 -70 7
-23 6 48 6 49 21 28 12 -18 24 -23 60 -23 25 0 52 6 58 12 10 10 17 10 32 0
11 -6 41 -12 67 -12 27 0 43 -4 36 -8 -6 -4 -59 -7 -117 -6 -116 3 -151 -9
-130 -43 10 -16 29 -18 198 -18 102 0 186 -3 186 -6 0 -17 34 -17 60 -2 27 16
30 16 48 0 21 -19 72 -23 90 -5 8 8 15 8 24 0 14 -11 77 -10 96 2 6 3 13 2 17
-3 3 -6 42 -9 86 -9 67 1 83 5 94 21 8 12 15 15 20 8 4 -7 73 -11 202 -11 169
0 199 2 215 17 17 15 18 15 18 -5 0 -13 -11 -27 -27 -36 -16 -8 -23 -15 -18
-16 6 0 20 7 32 15 20 14 21 23 22 161 0 115 -3 149 -14 161 -19 19 -19 33 0
33 11 0 15 12 15 46 0 37 -3 45 -15 40 -8 -3 -14 0 -12 7 1 6 -8 13 -20 15
-20 3 -22 10 -25 65 -3 56 -5 62 -25 65 -13 2 -23 8 -23 13 0 5 -7 9 -15 9
-17 0 -19 9 -5 30 6 10 4 20 -7 32 -14 15 -17 16 -31 2 -12 -13 -13 -20 -4
-34 9 -14 7 -21 -7 -34 -25 -23 -31 -20 -31 13 0 22 -6 30 -25 35 -14 4 -25
11 -25 16 0 6 -16 10 -35 10 -19 0 -35 -4 -35 -9 0 -5 -12 -12 -26 -15 l-26
-7 4 -159 c2 -119 0 -160 -9 -160 -17 0 -25 17 -11 23 7 3 2 6 -12 6 -14 0
-32 -4 -40 -10 -12 -9 -10 -10 8 -6 30 7 24 -10 -10 -31 -23 -14 -28 -14 -41
0 -10 10 -45 18 -96 22 -45 4 -81 9 -81 11 0 2 11 25 24 52 13 26 37 76 53
111 16 34 32 60 35 57 7 -7 2 26 -6 46 -7 15 -10 15 -37 2 -17 -8 -33 -13 -36
-10 -9 10 8 67 21 67 20 0 65 -39 81 -70 29 -57 14 -153 -29 -189 -22 -18 -20
-48 3 -60 41 -23 121 89 121 170 0 113 -86 216 -195 234 -71 12 -82 12 -121
-2z m66 -27 c0 -19 -7 -26 -31 -31 -66 -15 -129 -96 -129 -167 0 -38 29 -107
53 -127 23 -18 21 -41 -2 -41 -31 0 -78 63 -90 122 -9 43 -8 63 4 106 25 85
79 130 193 161 1 1 2 -10 2 -23z m108 -5 c44 -23 83 -63 107 -110 27 -54 18
-157 -19 -205 -32 -43 -52 -54 -69 -37 -8 8 -5 17 11 34 46 48 63 126 41 184
-21 57 -117 130 -138 107 -5 -5 -12 -42 -15 -82 l-7 -72 35 21 c20 12 39 25
42 30 3 5 9 9 13 9 4 0 -11 -37 -34 -82 -22 -46 -53 -111 -69 -146 -15 -35
-30 -62 -32 -59 -2 2 5 44 16 92 10 49 18 90 17 91 -1 1 -21 -11 -45 -27 -46
-31 -61 -37 -44 -16 5 6 30 62 55 122 78 187 70 179 135 146z m-136 -76 c-2
-14 -8 -25 -13 -25 -5 0 -9 -9 -9 -20 0 -12 -8 -35 -17 -53 -9 -18 -22 -50
-29 -72 l-12 -40 -11 28 c-27 68 -6 145 51 189 32 25 46 22 40 -7z m-335 9
c-3 -3 -12 -4 -19 -1 -8 3 -5 6 6 6 11 1 17 -2 13 -5z m770 0 c-3 -3 -12 -4
-19 -1 -8 3 -5 6 6 6 11 1 17 -2 13 -5z m143 -4 c0 -5 -4 -10 -9 -10 -6 0 -13
5 -16 10 -3 6 1 10 9 10 9 0 16 -4 16 -10z m-850 -150 l0 -140 -70 0 -70 0 0
140 0 140 70 0 70 0 0 -140z m769 0 l0 -140 -69 0 -70 0 0 133 c0 74 3 137 7
140 3 4 34 7 69 7 l62 0 1 -140z m-969 96 c0 -9 -40 -13 -46 -5 -3 5 6 9 20 9
14 0 26 -2 26 -4z m1053 -3 c-7 -2 -19 -2 -25 0 -7 3 -2 5 12 5 14 0 19 -2 13
-5z m-1013 -128 c0 -58 4 -107 10 -110 19 -11 10 -21 -21 -23 -17 -1 -39 -6
-48 -11 -10 -6 -25 -4 -41 5 l-25 13 31 1 c17 0 47 3 65 8 31 6 28 7 -29 12
-34 3 -62 8 -62 13 0 4 0 50 0 101 l0 95 53 3 c28 2 55 2 60 0 4 -2 7 -50 7
-107z m1070 -1 l0 -104 -62 0 -63 0 2 107 c1 60 2 108 3 108 0 0 27 -2 60 -3
l60 -4 0 -104z m-647 -96 c-3 -40 -11 -79 -18 -87 -12 -12 -17 -9 -39 15 -22
25 -38 60 -19 41 10 -10 43 23 43 43 0 10 -7 24 -17 31 -16 14 -13 16 48 28 4
0 4 -32 2 -71z m-587 47 c9 -8 11 -15 5 -15 -6 0 -11 -7 -11 -15 0 -8 -4 -15
-10 -15 -5 0 -10 7 -10 16 0 8 -4 12 -10 9 -14 -9 -12 3 3 20 15 18 15 18 33
0z m1290 1 c19 -19 18 -30 -2 -22 -13 5 -14 4 -6 -7 13 -15 6 -27 -15 -27 -13
0 -19 51 -6 63 9 10 13 9 29 -7z m-46 -76 c0 -5 -8 -10 -17 -10 -15 0 -16 2
-3 10 19 12 20 12 20 0z m-190 -10 c0 -5 -5 -10 -11 -10 -5 0 -7 5 -4 10 3 6
8 10 11 10 2 0 4 -4 4 -10z m97 0 c22 0 24 -2 12 -16 -8 -9 -14 -37 -14 -62
-1 -25 -6 -47 -13 -50 -12 -4 -27 40 -19 60 2 7 -2 28 -9 47 -12 29 -12 32 2
27 9 -3 27 -6 41 -6z m-1101 -30 c38 -15 53 -39 54 -86 0 -53 -29 -81 -88 -85
l-44 -3 1 87 c0 48 0 89 1 92 0 9 48 5 76 -5z m182 -12 c-3 -20 -8 -23 -40
-20 -33 3 -38 1 -38 -17 0 -17 6 -21 35 -21 24 0 35 -5 35 -15 0 -10 -11 -15
-35 -15 -29 0 -35 -4 -35 -21 0 -20 4 -21 40 -15 35 5 40 4 40 -13 0 -16 -9
-20 -59 -23 l-59 -3 0 93 0 92 60 0 c56 0 59 -1 56 -22z m132 2 c0 -17 -7 -20
-40 -20 -33 0 -40 -3 -40 -20 0 -16 7 -20 35 -20 24 0 35 -5 35 -15 0 -10 -11
-15 -35 -15 -29 0 -35 -4 -35 -21 0 -19 4 -21 40 -16 35 4 40 2 40 -14 0 -17
-8 -19 -60 -19 l-60 0 0 90 0 90 60 0 c53 0 60 -2 60 -20z m145 -5 c50 -49 19
-115 -55 -115 -36 0 -40 -3 -40 -24 0 -19 -4 -23 -20 -19 -18 5 -20 14 -20 94
l0 89 55 0 c46 0 60 -4 80 -25z m226 8 c16 -10 29 -20 29 -24 0 -12 -53 -20
-63 -10 -6 6 -23 11 -39 11 -48 0 -66 -66 -26 -94 28 -20 43 -20 60 -2 14 14
78 11 78 -4 0 -10 -80 -50 -99 -50 -27 0 -79 32 -90 56 -18 41 -13 74 18 105
35 34 86 39 132 12z m79 -15 l26 -31 23 31 c21 30 61 44 61 22 0 -5 -3 -10 -7
-10 -5 0 -21 -20 -36 -45 -21 -33 -28 -54 -25 -82 2 -29 -1 -38 -14 -41 -15
-3 -18 4 -18 41 0 38 -7 54 -40 96 -37 47 -39 51 -18 51 12 0 33 -14 48 -32z
m208 16 c12 -8 22 -19 22 -23 0 -16 -30 -21 -50 -9 -30 19 -70 -4 -70 -41 0
-30 22 -61 44 -61 7 0 21 6 32 14 13 10 23 11 31 4 20 -17 15 -27 -20 -44 -30
-14 -37 -14 -70 0 -65 27 -72 92 -17 147 32 32 65 37 98 13z m72 -57 l0 -73
35 4 c31 4 35 2 35 -19 0 -22 -4 -24 -55 -24 l-55 0 0 93 c0 85 1 92 20 92 18
0 20 -7 20 -73z m200 47 c0 -25 -2 -26 -40 -20 -36 6 -40 4 -40 -14 0 -16 7
-20 35 -20 24 0 35 -5 35 -15 0 -10 -11 -15 -35 -15 -29 0 -35 -4 -35 -21 0
-19 4 -21 41 -16 36 5 40 3 37 -14 -2 -11 -6 -20 -10 -19 -5 0 -30 0 -58 0
l-50 0 0 90 0 90 60 0 c58 0 60 -1 60 -26z m20 -71 c0 -25 -3 -43 -7 -40 -3 4
-6 23 -5 42 1 43 1 45 7 45 3 0 5 -21 5 -47z m-626 21 c23 -9 19 -31 -6 -38
-27 -6 -43 7 -35 28 7 17 16 19 41 10z m82 -2 c6 -4 13 -14 16 -23 5 -14 1
-14 -32 -5 -34 9 -37 11 -22 23 20 15 23 15 38 5z m231 -8 c3 -8 1 -20 -4 -25
-14 -14 -43 0 -43 22 0 24 38 26 47 3z m-438 -102 c-14 -9 -23 -10 -43 -1 -21
10 -30 9 -52 -6 -16 -10 -30 -13 -35 -8 -13 13 11 32 45 35 14 1 36 12 49 24
l22 21 16 -26 c15 -24 14 -27 -2 -39z m231 19 c0 -5 -7 -12 -16 -15 -14 -5
-15 -4 -4 9 14 17 20 19 20 6z m124 -26 c11 -8 33 -15 50 -15 47 0 24 -10 -30
-13 -28 -2 -55 -7 -62 -11 -16 -10 -16 26 0 42 15 15 19 15 42 -3z m396 -24
l0 -29 -36 17 c-33 15 -34 16 -13 19 13 2 28 8 34 13 14 13 15 12 15 -20z
m-255 9 c4 -6 11 -7 17 -4 6 4 8 2 5 -3 -7 -11 -55 -15 -70 -6 -12 7 3 23 23
23 10 0 22 -5 25 -10z m-805 -4 c0 -11 -19 -15 -25 -6 -3 5 1 10 9 10 9 0 16
-2 16 -4z m80 -8 c0 -5 -16 -8 -35 -8 -19 0 -35 4 -35 9 0 5 16 9 35 8 19 -1
35 -5 35 -9z m88 0 c14 -14 -2 -48 -23 -48 -8 0 -15 -4 -15 -10 0 -5 -4 -10
-10 -10 -5 0 -10 18 -10 40 0 35 3 40 23 40 13 0 28 -5 35 -12z m112 -8 c8
-14 8 -26 0 -40 -19 -35 -80 -20 -80 20 0 40 61 55 80 20z m53 -2 l4 -23 8 23
c8 25 25 30 25 7 0 -8 5 -15 10 -15 6 0 10 7 10 15 0 8 5 15 10 15 13 0 13
-10 -1 -49 -13 -36 -26 -40 -32 -8 l-4 22 -8 -22 c-11 -33 -20 -28 -38 17 -12
32 -13 40 -2 40 8 0 16 -10 18 -22z m167 12 c0 -5 -12 -11 -27 -11 -24 -2 -25
-2 -5 -6 12 -2 22 -8 22 -13 0 -5 -10 -11 -22 -13 -20 -4 -19 -4 5 -6 37 -1
35 -21 -3 -21 -28 0 -30 2 -30 40 0 38 2 40 30 40 17 0 30 -4 30 -10z m85 -32
c0 -41 -4 -45 -24 -25 -11 9 -14 10 -18 0 -10 -27 -23 -11 -23 28 0 39 1 40
33 37 30 -3 32 -6 32 -40z m394 38 c-9 -9 -129 -14 -129 -5 0 5 30 9 67 9 36
0 64 -2 62 -4z m-909 -46 c0 -6 -65 -10 -175 -10 -110 0 -175 4 -175 10 0 6
65 10 175 10 110 0 175 -4 175 -10z m965 0 c-8 -14 -405 -14 -405 0 0 6 75 10
206 10 134 0 203 -3 199 -10z"/>
<path d="M428 643 c-10 -2 -18 -9 -18 -14 0 -6 4 -8 9 -5 10 6 25 -199 16
-214 -4 -6 -11 -8 -16 -5 -5 4 -9 1 -9 -4 0 -6 9 -11 20 -11 19 0 20 7 20 130
0 72 -1 129 -2 129 -2 -1 -11 -3 -20 -6z"/>
<path d="M360 514 c0 -81 4 -123 10 -119 6 3 10 53 10 114 0 70 4 111 12 119
9 9 7 12 -10 12 -21 0 -22 -3 -22 -126z"/>
<path d="M412 585 c0 -16 2 -22 5 -12 2 9 2 23 0 30 -3 6 -5 -1 -5 -18z"/>
<path d="M411 524 c0 -11 3 -14 6 -6 3 7 2 16 -1 19 -3 4 -6 -2 -5 -13z"/>
<path d="M413 460 c0 -25 2 -35 4 -22 2 12 2 32 0 45 -2 12 -4 2 -4 -23z"/>
<path d="M1180 631 c0 -6 4 -12 9 -15 10 -7 12 -56 1 -56 -3 0 -7 -7 -7 -15 0
-8 4 -15 8 -15 5 0 7 -6 4 -12 -2 -7 -6 -39 -9 -70 -5 -53 -4 -58 14 -58 19 0
20 7 20 125 0 118 -1 125 -20 125 -11 0 -20 -4 -20 -9z"/>
<path d="M1131 528 c0 -58 -4 -113 -7 -122 -4 -10 -1 -16 7 -16 11 0 13 21 11
97 -4 144 -9 163 -11 41z"/>
<path d="M210 485 c0 -57 4 -95 10 -95 6 0 10 34 10 83 0 51 5 88 12 95 9 9 7
12 -10 12 -21 0 -22 -4 -22 -95z"/>
<path d="M260 485 c0 -88 1 -95 20 -95 19 0 20 7 20 95 0 88 -1 95 -20 95 -19
0 -20 -7 -20 -95z m17 -37 c-2 -24 -4 -5 -4 42 0 47 2 66 4 43 2 -24 2 -62 0
-85z"/>
<path d="M1334 499 c-1 -44 -6 -85 -12 -91 -21 -21 -32 5 -33 80 l-2 77 -7
-80 c-5 -44 -6 -83 -4 -87 3 -4 22 -6 44 -6 l39 0 3 94 c2 78 0 94 -12 94 -12
0 -15 -16 -16 -81z"/>
<path d="M150 234 c0 -51 2 -55 22 -52 12 2 29 15 37 29 13 24 13 29 -2 53
-10 14 -26 26 -37 26 -18 0 -20 -7 -20 -56z"/>
<path d="M560 260 c0 -28 3 -30 35 -30 23 0 38 6 41 15 9 23 -15 45 -47 45
-26 0 -29 -4 -29 -30z"/>
<path d="M530 90 c0 -5 5 -10 10 -10 6 0 10 5 10 10 0 6 -4 10 -10 10 -5 0
-10 -4 -10 -10z"/>
<path d="M625 90 c-4 -7 -3 -16 3 -22 14 -14 45 -2 40 15 -6 16 -34 21 -43 7z"/>
<path d="M940 90 c0 -5 7 -10 15 -10 8 0 15 5 15 10 0 6 -7 10 -15 10 -8 0
-15 -4 -15 -10z"/>
<path d="M465 753 c-11 -43 28 -70 56 -37 16 19 3 43 -28 55 -17 6 -22 3 -28
-18z m45 -19 c0 -8 -7 -14 -15 -14 -15 0 -21 21 -9 33 10 9 24 -2 24 -19z"/>
<path d="M1056 764 c-21 -15 -18 -42 5 -57 13 -8 21 -6 33 6 20 20 20 23 -2
45 -16 16 -22 17 -36 6z m34 -29 c0 -8 -6 -15 -14 -15 -17 0 -28 14 -19 24 12
12 33 6 33 -9z"/>
<path d="M1211 756 c-10 -18 -10 -29 -2 -45 14 -26 22 -26 49 -1 21 20 22 22
5 45 -23 31 -36 31 -52 1z m45 -17 c7 -12 -15 -31 -28 -23 -4 3 -8 12 -8 20 0
17 26 19 36 3z"/>
<path d="M312 761 c-8 -4 -12 -19 -10 -32 2 -18 9 -24 28 -24 19 0 26 6 28 24
3 20 -11 41 -28 41 -3 0 -11 -4 -18 -9z m35 -17 c8 -21 -13 -42 -28 -27 -13
13 -5 43 11 43 6 0 13 -7 17 -16z"/>
<path d="M1789 741 c-35 -11 -38 -33 -39 -298 0 -225 2 -264 16 -277 8 -9 18
-16 22 -17 4 0 19 -3 34 -5 31 -5 68 27 68 60 0 16 3 17 12 8 17 -17 64 -15
82 4 15 14 16 13 16 -10 0 -36 25 -56 70 -56 28 0 43 6 54 21 l14 21 21 -21
c22 -22 43 -25 156 -23 55 0 62 3 87 32 26 31 26 32 37 11 8 -15 9 -27 1 -40
-16 -31 -12 -76 11 -105 20 -25 25 -26 118 -26 89 0 99 2 119 23 17 18 22 36
22 80 0 58 8 69 30 42 9 -11 36 -14 118 -14 60 0 112 5 119 11 10 8 13 54 13
177 0 162 -1 168 -23 189 -20 19 -34 22 -113 22 -71 0 -94 -4 -113 -19 -23
-18 -24 -18 -42 0 -26 26 -218 22 -249 -6 -11 -10 -20 -25 -20 -34 -1 -10 -6
-6 -16 11 -21 41 -43 48 -142 48 -76 0 -91 -3 -107 -20 -10 -11 -21 -20 -25
-20 -4 0 -7 46 -8 102 -2 109 -8 125 -52 128 -63 5 -73 -8 -111 -143 -25 -89
-28 -88 -60 29 -11 43 -28 86 -36 95 -15 18 -60 28 -84 20z m112 -178 l43
-153 42 147 c24 82 43 150 44 153 0 3 18 5 40 5 l40 0 0 -272 0 -273 -40 0
-41 0 3 159 c2 88 0 157 -4 154 -5 -2 -8 -11 -8 -20 0 -8 -12 -67 -27 -129
-24 -101 -29 -114 -48 -114 -19 0 -24 13 -50 123 -16 67 -31 127 -34 134 -3 6
-4 -60 -2 -148 l3 -159 -41 0 -41 0 0 273 0 272 39 0 39 0 43 -152z m483 -59
c11 -28 6 -150 -6 -162 -7 -7 -39 -12 -75 -12 l-63 0 0 -45 0 -45 39 0 c35 0
38 2 33 25 -4 23 -2 25 37 25 l41 0 0 -50 c0 -63 -13 -70 -119 -70 -109 0
-111 3 -111 178 0 73 5 142 10 153 10 17 22 19 109 19 81 0 100 -3 105 -16z
m296 -215 c0 -266 7 -249 -112 -249 -87 0 -104 10 -110 63 l-4 37 43 0 c34 0
41 -3 37 -15 -5 -12 2 -15 30 -15 32 0 36 3 36 25 0 14 0 28 0 31 0 3 -25 7
-56 7 -86 3 -94 17 -94 180 0 168 -2 166 131 165 l99 0 0 -229z m275 219 c2
-7 6 -86 7 -175 l3 -162 -103 3 c-57 2 -108 8 -113 13 -5 5 -9 50 -7 99 l3 89
73 3 72 3 0 38 c0 38 0 38 -40 38 -35 0 -40 -3 -38 -19 3 -17 -3 -21 -34 -23
l-38 -2 0 42 c0 22 5 46 12 53 17 17 197 16 203 0z m-233 -130 c-9 -9 -12 -7
-12 12 0 19 3 21 12 12 9 -9 9 -15 0 -24z m-302 -60 c-1 -28 -2 -30 -11 -15
-6 10 -8 25 -5 33 9 24 16 16 16 -18z m-130 -28 c0 -5 -2 -10 -4 -10 -3 0 -8
5 -11 10 -3 6 -1 10 4 10 6 0 11 -4 11 -10z"/>
<path d="M2240 419 c0 -38 1 -39 38 -39 36 0 37 1 36 37 -1 35 -3 37 -38 40
-36 2 -36 2 -36 -38z"/>
<path d="M2540 450 c-7 -4 -10 -44 -8 -106 l3 -99 35 -3 35 -3 0 105 0 104
-27 4 c-15 3 -32 2 -38 -2z m38 -74 c1 -19 -2 -37 -8 -41 -6 -4 -10 11 -10 40
0 53 15 54 18 1z m-2 -76 c0 -11 -4 -20 -8 -20 -4 0 -8 9 -8 20 0 11 4 20 8
20 4 0 8 -9 8 -20z"/>
<path d="M2810 285 l0 -45 40 0 40 0 0 45 0 45 -40 0 -40 0 0 -45z m42 -7 c-7
-7 -12 -8 -12 -2 0 14 12 26 19 19 2 -3 -1 -11 -7 -17z"/>
<path d="M3273 740 c-130 -7 -133 -10 -134 -152 -1 -62 -2 -176 -1 -252 0
-134 1 -140 25 -164 22 -22 34 -25 116 -26 115 -3 151 8 173 54 l18 35 0 -31
c0 -39 19 -56 67 -58 54 -3 68 22 67 114 -1 39 2 68 6 63 5 -4 20 -39 34 -77
33 -88 40 -96 86 -96 38 0 69 23 71 51 0 8 5 5 11 -7 16 -34 46 -43 157 -46
100 -3 105 -3 132 23 27 25 28 28 23 110 -3 46 -9 88 -14 93 -12 12 -89 9
-106 -5 -8 -6 -14 -28 -14 -49 0 -37 -16 -55 -36 -42 -10 7 -17 268 -8 310 3
14 12 22 25 22 16 0 19 -6 17 -34 -3 -47 16 -66 66 -66 55 0 66 9 68 56 6 169
0 176 -158 175 -95 -1 -110 -3 -130 -22 -13 -12 -25 -33 -27 -48 -4 -24 -4
-23 -6 5 -1 40 -29 64 -73 64 -48 0 -58 -16 -59 -92 -1 -36 -5 -72 -10 -79 -7
-11 -9 -11 -9 -1 0 7 -14 47 -31 87 -32 77 -49 92 -99 86 -37 -4 -50 -19 -51
-60 l-1 -36 -9 31 c-18 62 -45 72 -186 64z m351 -170 c31 -80 56 -151 56 -157
0 -7 3 -14 8 -16 4 -3 6 68 4 157 l-3 161 40 0 41 0 0 -273 0 -273 -37 3 c-31
3 -38 8 -49 38 -7 19 -34 94 -61 166 l-48 130 3 -168 4 -169 -41 3 -42 3 0
268 c1 147 1 268 1 270 0 1 15 2 34 3 l34 0 56 -146z m-196 48 l3 -88 -41 0
-40 0 0 55 0 55 -52 0 -53 0 0 -195 0 -195 53 0 52 0 0 53 0 52 40 0 40 0 0
-82 c0 -101 -2 -103 -134 -103 -143 0 -136 -14 -136 271 0 142 4 238 11 250 9
18 19 19 132 17 l122 -3 3 -87z m666 76 c3 -9 6 -49 6 -90 l0 -74 -40 0 -40 0
0 55 0 55 -52 0 -53 0 0 -195 0 -195 53 0 52 0 0 53 0 52 40 0 40 0 0 -82 c0
-101 -2 -103 -132 -103 -147 0 -138 -17 -138 274 0 175 3 245 12 254 8 8 51
12 129 12 97 0 118 -3 123 -16z m-627 -76 c-3 -8 -6 -5 -6 6 -1 11 2 17 5 13
3 -3 4 -12 1 -19z m-147 -41 c0 -54 22 -75 72 -70 28 3 49 12 59 26 16 19 17
14 18 -91 0 -71 -3 -112 -10 -112 -6 0 -8 4 -4 9 11 18 -44 49 -78 44 -42 -6
-50 -15 -56 -64 -3 -24 -12 -44 -18 -46 -24 -8 -33 50 -31 193 2 143 2 144 25
144 19 0 23 -5 23 -33z m487 -4 c-3 -10 -5 -4 -5 12 0 17 2 24 5 18 2 -7 2
-21 0 -30z m-340 -5 c-3 -8 -6 -5 -6 6 -1 11 2 17 5 13 3 -3 4 -12 1 -19z
m340 -65 c-3 -10 -5 -4 -5 12 0 17 2 24 5 18 2 -7 2 -21 0 -30z m-337 -224 c0
-22 -4 -38 -8 -35 -8 5 -4 76 4 76 2 0 4 -18 4 -41z"/>
<path d="M980 726 c0 -2 8 -10 18 -17 15 -13 16 -12 3 4 -13 16 -21 21 -21 13z"/>
<path d="M237 694 c-10 -10 -9 -42 2 -48 18 -11 42 6 39 28 -3 21 -28 33 -41
20z m33 -25 c0 -5 -7 -9 -15 -9 -15 0 -20 12 -9 23 8 8 24 -1 24 -14z"/>
<path d="M1013 668 c-2 -16 1 -18 10 -9 7 7 8 14 1 21 -6 6 -10 2 -11 -12z"/>
<path d="M1044 564 c1 -33 -3 -75 -7 -94 -6 -25 -5 -30 2 -19 15 24 24 120 14
148 -7 18 -9 10 -9 -35z"/>
<path d="M511 554 c-1 -49 21 -129 44 -154 10 -11 14 -24 10 -32 -6 -10 -5
-10 5 -1 11 10 11 16 -3 30 -23 26 -37 69 -47 138 -6 52 -8 54 -9 19z"/>
<path d="M1005 403 l-17 -28 23 22 c12 12 20 25 17 28 -3 3 -13 -7 -23 -22z"/>
<path d="M503 373 c9 -2 25 -2 35 0 9 3 1 5 -18 5 -19 0 -27 -2 -17 -5z"/>
<path d="M80 53 c0 -5 10 -18 23 -29 l22 -19 -20 25 c-11 14 -21 27 -22 29 -2
2 -3 0 -3 -6z"/>
</g>
</svg>
